<svg width="59" height="68" viewBox="0 0 59 68" fill="none" xmlns="http://www.w3.org/2000/svg">
<path d="M10.8548 36.9531L5.71211 28.5433C5.22809 27.8172 4.13904 27.9382 3.83653 28.7248L0.266879 37.8607C-0.0356341 38.5867 0.569392 39.3732 1.35593 39.3127L3.29201 39.1312C5.28859 47.3596 11.5809 51.7763 17.6311 56.0114C22.1688 59.2181 26.4645 62.2432 28.4611 66.5994C28.8846 67.5069 30.0342 67.3254 30.3972 66.5994C32.3938 62.1827 36.6894 59.1576 41.2271 56.0114C47.2774 51.7763 53.5697 47.3596 55.5662 39.1312L57.5023 39.3127C58.2889 39.3732 58.8939 38.5867 58.5914 37.8607L55.0217 28.7248C54.7192 27.8777 53.5697 27.8172 53.1461 28.5433L48.0034 36.8926C47.5799 37.5582 48.0034 38.4052 48.79 38.5262L50.0605 38.6472C47.7614 43.0034 43.3447 45.9075 38.928 47.2991C38.1415 45.9075 36.0239 44.879 33.6643 43.9109L33.4223 31.2054C37.6575 29.6928 43.0422 27.5752 43.3447 22.735C43.5867 18.8629 39.5331 15.6562 35.7819 12.7521C38.202 9.24295 37.2945 4.46324 33.7853 2.04314C30.2762 -0.376964 25.4965 0.530575 23.0764 4.03972C20.4747 7.79088 21.7453 12.9941 25.7385 15.1722L25.678 18.3788C24.0444 18.5603 22.4713 18.9234 20.9588 19.3469C20.5352 19.4679 20.1722 19.8914 20.1722 20.3754V24.3686C20.1722 24.8526 20.4747 25.2761 20.9588 25.3971C22.4713 25.8207 23.9839 26.1232 25.557 26.3652L25.436 31.9314C23.4999 32.8995 21.1403 34.3515 20.7168 36.8926C20.2327 39.7363 22.8948 41.6118 25.2544 42.7614L25.1334 47.2991C25.1334 47.8436 24.6494 48.2671 24.1049 48.2066C18.5387 47.5411 11.8834 44.3949 8.85825 38.6472L10.1288 38.5262C10.8548 38.4657 11.2784 37.6187 10.8548 36.9531ZM36.5684 47.9041C35.9029 48.0251 35.2979 48.1461 34.6323 48.2066C34.0878 48.2671 33.6038 47.8436 33.6038 47.2991V46.2705C34.6324 46.6335 35.6609 47.2386 36.5684 47.9041ZM41.1061 22.5535C40.9246 25.6391 37.4155 27.3937 33.2408 28.9063L33.1803 26.3047C34.7534 26.1232 36.2659 25.7602 37.7785 25.3366C38.202 25.2156 38.565 24.7921 38.565 24.3081V20.3149C38.565 19.8309 38.2625 19.4074 37.7785 19.2864C36.2054 18.8629 34.6324 18.4998 33.0593 18.3183L32.9988 15.1722C33.4223 14.9302 33.8458 14.6277 34.2088 14.3252C37.597 16.8663 41.3481 19.7704 41.1061 22.5535ZM23.8024 8.39591C23.8024 5.31028 26.283 2.82967 29.3686 2.82967C32.4543 2.82967 34.9349 5.31028 34.9349 8.39591C34.9349 9.48496 34.6323 10.574 34.0273 11.4815C33.5433 11.1185 33.1198 10.7555 32.6963 10.3925C33.7853 8.57742 33.1803 6.15732 31.3652 5.06827C29.5501 3.97922 27.13 4.58425 26.041 6.39932C24.9519 8.2144 25.557 10.6345 27.372 11.7236C28.5216 12.3891 29.9737 12.4496 31.1232 11.8446C31.5467 12.2076 32.0307 12.6311 32.5148 12.9941C28.8241 15.5352 23.8024 12.8126 23.8024 8.39591ZM30.2762 7.85139C29.9737 7.36737 29.3081 7.18586 28.8241 7.48837C28.3401 7.79088 28.1586 8.45641 28.4611 8.94043C28.7031 9.36395 29.0661 9.78747 29.3686 10.1505C28.4006 10.1505 27.614 9.36395 27.614 8.39591C27.614 7.42787 28.4006 6.64134 29.3686 6.64134C30.5182 6.64134 31.3652 7.73038 31.0627 8.87993C30.7602 8.57742 30.5182 8.2144 30.2762 7.85139ZM27.7956 15.9587C28.8241 16.2007 29.8526 16.2007 30.8812 15.9587L30.9417 18.2578C29.8526 18.1973 28.8241 18.1973 27.7351 18.2578L27.7956 15.9587ZM22.2293 21.2225C26.888 20.0124 31.7887 20.0124 36.4474 21.2225V23.5821C31.7887 24.7921 26.888 24.7921 22.2293 23.5821V21.2225ZM31.1232 26.5467L31.4257 43.0639H31.3652C30.0342 42.5194 28.6426 42.0353 27.372 41.4303L27.614 26.5467C28.8846 26.6072 29.8526 26.6072 31.1232 26.5467ZM22.7738 37.2556C22.9554 36.2271 23.8024 35.2591 25.3755 34.3515L25.2544 40.4018C22.8343 38.9497 22.6528 37.9212 22.7738 37.2556ZM23.8629 50.3242C25.678 50.5057 27.251 49.1141 27.251 47.3596L27.3115 43.7899C28.7031 44.3949 30.0342 44.879 31.4257 45.4235L31.4862 47.3596C31.5467 49.1746 33.1198 50.5662 34.8744 50.3847C41.4691 49.5982 49.516 45.5445 52.4806 38.2237C52.7226 37.5582 52.2991 36.8321 51.5731 36.7716L50.5445 36.6506L53.6907 31.5079L55.8688 37.0741L54.7192 36.9531C54.1747 36.8926 53.6907 37.2556 53.5697 37.8002C51.9966 45.7865 45.8253 50.1427 39.8961 54.2569C36.2659 56.798 32.8173 59.2181 30.3367 62.3642V54.9829C30.3367 54.3779 29.8526 53.8939 29.2476 53.8939C28.6426 53.8939 28.1586 54.3779 28.1586 54.9829V62.4247C25.7385 59.2786 22.2293 56.798 18.5992 54.3174C12.6699 50.1427 6.49865 45.847 4.92558 37.8607C4.80457 37.3161 4.32055 36.9531 3.77603 37.0136L2.62648 37.1346L4.80457 31.5684L7.95071 36.7111L6.92216 36.8321C6.19613 36.8926 5.77261 37.6187 6.01462 38.2842C9.22126 45.484 17.2076 49.5377 23.8629 50.3242Z" fill="white"/>
</svg>
