<svg width="69" height="69" viewBox="0 0 69 69" fill="none" xmlns="http://www.w3.org/2000/svg">
<path d="M31.9134 16.4674C31.9134 17.7427 31.754 19.018 31.4352 20.1339H29.044C29.3629 19.018 29.5223 17.7427 29.5223 16.4674C29.5223 9.13461 23.4647 3.07705 16.1319 3.07705C8.79905 3.07705 2.7415 9.13461 2.7415 16.4674C2.7415 23.8003 8.79905 29.8578 16.1319 29.8578C17.4072 29.8578 18.8418 29.6984 19.9577 29.2202V31.6113C18.6824 31.9302 17.4072 32.0896 16.1319 32.0896C7.52378 32.0896 0.509766 25.0755 0.509766 16.4674C0.509766 7.69993 7.52378 0.685913 16.2913 0.685913C24.8994 0.685913 31.9134 7.69993 31.9134 16.4674Z" fill="white"/>
<path d="M68.2586 16.4674C68.2586 25.0755 61.2446 32.249 52.4771 32.249C51.2018 32.249 50.0859 32.0896 48.9701 31.7707V29.3796C50.0859 29.6984 51.3612 29.8578 52.4771 29.8578C59.8099 29.8578 65.8675 23.8003 65.8675 16.4674C65.8675 9.13461 59.8099 3.07705 52.4771 3.07705C45.1442 3.07705 39.0867 9.13461 39.0867 16.4674C39.0867 17.7427 39.2461 19.018 39.5649 20.1339H37.1738C36.855 19.018 36.6956 17.7427 36.6956 16.4674C36.6956 7.85933 43.7096 0.685913 52.4771 0.685913C61.2446 0.685913 68.2586 7.69993 68.2586 16.4674Z" fill="white"/>
<path d="M31.9134 52.4939C31.9134 61.102 24.8994 68.2755 16.1319 68.2755C7.52378 68.2755 0.509766 61.2614 0.509766 52.4939C0.509766 43.8858 7.52378 36.7124 16.2913 36.7124C17.5666 36.7124 19.0013 36.8718 20.1171 37.1906V39.5818C18.8418 39.263 17.5666 38.9441 16.2913 38.9441C8.95846 38.9441 2.90091 45.0017 2.90091 52.3345C2.90091 59.6674 8.95846 65.7249 16.2913 65.7249C23.6241 65.7249 29.6817 59.6674 29.6817 52.3345C29.6817 51.0592 29.5223 49.9434 29.2035 48.8275H31.5946C31.754 50.1028 31.9134 51.3781 31.9134 52.4939Z" fill="white"/>
<path d="M68.2586 52.4939C68.2586 61.102 61.2446 68.2755 52.4771 68.2755C43.869 68.2755 36.6956 61.2614 36.6956 52.4939C36.6956 51.2187 36.855 50.1028 37.1738 48.9869H39.5649C39.2461 50.1028 39.0867 51.3781 39.0867 52.4939C39.0867 59.8268 45.1442 65.8843 52.4771 65.8843C59.8099 65.8843 65.8675 59.8268 65.8675 52.4939C65.8675 45.1611 59.8099 39.1035 52.4771 39.1035C51.2018 39.1035 50.0859 39.263 48.9701 39.5818V37.1906C50.0859 36.8718 51.3612 36.7124 52.4771 36.7124C61.2446 36.8718 68.2586 43.8858 68.2586 52.4939Z" fill="white"/>
<path d="M35.8988 23.6409C36.6958 23.8003 37.1741 24.4379 37.3335 25.235C37.3335 25.5538 37.4929 25.8726 37.4929 26.3509C37.6523 27.1479 38.4493 27.6261 39.2464 27.3073C39.5652 27.1479 39.884 26.9885 40.3622 26.9885C41.1593 26.6697 42.1157 26.9885 42.594 27.7855C43.2316 28.742 43.7098 29.8579 44.3475 30.8143C44.8257 31.6114 44.6663 32.4084 44.0287 33.0461C43.7098 33.3649 43.391 33.5243 43.2316 33.8431C42.594 34.4807 42.594 35.2778 43.2316 35.9154C43.5504 36.2342 43.8692 36.3937 44.1881 36.7125C44.8257 37.3501 44.9851 38.1472 44.5069 38.9442C43.8692 40.0601 43.391 41.0165 42.7534 42.1324C42.2752 42.9294 41.4781 43.0888 40.6811 42.9294C40.3622 42.77 39.884 42.6106 39.5652 42.4512C38.7681 42.1324 37.9711 42.6106 37.8117 43.4077C37.8117 43.8859 37.6523 44.2047 37.6523 44.6829C37.4929 45.48 36.8552 45.9582 36.0582 45.9582C34.7829 45.9582 33.5076 45.9582 32.3918 45.9582C31.5947 45.9582 30.9571 45.3206 30.7977 44.5235C30.7977 44.2047 30.6383 43.8859 30.6383 43.4077C30.4789 42.6106 29.6818 42.1324 28.8848 42.4512C28.5659 42.6106 28.2471 42.77 27.7689 42.77C26.9719 43.0888 26.0154 42.77 25.5372 41.973C24.8995 41.0165 24.4213 39.9007 23.7837 38.9442C23.3054 38.1472 23.4648 37.3501 24.1025 36.7125C24.4213 36.3937 24.7401 36.2342 24.8995 35.9154C25.5372 35.2778 25.5372 34.4807 24.8995 33.8431C24.5807 33.5243 24.2619 33.3649 23.9431 33.0461C23.3054 32.4084 23.146 31.6114 23.6243 30.8143C24.2619 29.6985 24.7401 28.742 25.3778 27.6261C25.856 26.8291 26.653 26.5103 27.4501 26.8291C27.7689 26.9885 28.0877 27.1479 28.5659 27.1479C29.363 27.4667 30.16 26.9885 30.3194 26.1915C30.3194 25.8726 30.4789 25.5538 30.4789 25.235C30.6383 24.4379 31.1165 23.9597 31.9135 23.8003C33.1888 23.6409 34.4641 23.6409 35.8988 23.6409ZM32.073 43.8859C33.3482 43.8859 34.4641 43.8859 35.7394 43.8859C35.7394 43.5671 35.8988 43.2483 35.8988 42.9294C36.2176 41.1759 37.8117 39.9007 39.5652 40.3789C40.0434 40.5383 40.5216 40.6977 40.8405 40.8571C40.9999 40.8571 40.9999 40.8571 41.1593 40.6977C41.3187 40.3789 41.6375 39.9007 41.7969 39.5818C42.1157 38.9442 42.4346 38.3066 42.9128 37.8283C42.594 37.5095 42.2752 37.3501 42.1157 37.1907C40.5217 35.9154 40.5217 33.6837 42.1157 32.4084C42.4346 32.249 42.7534 31.9302 42.9128 31.7708C42.2752 30.8143 41.7969 29.6985 41.1593 28.742C41.1593 28.5826 40.9999 28.5826 40.9999 28.742C40.6811 28.9014 40.2028 29.0608 39.884 29.2202C38.1305 29.6985 36.377 28.742 36.0582 26.9885C36.0582 26.5103 35.8988 26.1914 35.8988 25.7132C34.6235 25.7132 33.5076 25.7132 32.2324 25.7132C32.2324 26.032 32.073 26.3509 32.073 26.6697C31.7541 28.4232 30.16 29.6985 28.4065 29.2202C27.9283 29.0608 27.4501 28.9014 27.1313 28.742C26.9719 28.742 26.9719 28.742 26.8124 28.9014C26.3342 29.8579 25.6966 30.8143 25.2183 31.7708C25.2183 31.7708 25.2183 31.7708 25.2183 31.9302C25.5372 32.0896 25.856 32.4084 26.0154 32.5678C27.6095 33.8431 27.6095 36.0748 26.0154 37.3501C25.6966 37.5095 25.3778 37.8283 25.2183 37.9877C25.856 38.9442 26.3342 39.9007 26.9719 41.0165C26.9719 41.1759 27.1313 41.1759 27.1313 41.0165C27.4501 40.8571 27.7689 40.6977 28.0877 40.6977C29.8412 40.0601 31.7541 41.1759 32.073 42.9294C31.9135 43.0888 31.9135 43.4077 32.073 43.8859Z" fill="white"/>
<path d="M33.9857 38.9442C31.754 39.1036 29.6817 37.1907 29.6817 34.7996C29.5222 32.5678 31.4352 30.4955 33.8263 30.4955C36.058 30.3361 38.1304 32.249 38.1304 34.6402C38.1304 36.8719 36.3768 38.7848 33.9857 38.9442ZM36.3768 34.6402C36.3768 33.2055 35.261 32.0896 33.8263 32.0896C32.3916 32.0896 31.2757 33.2055 31.2757 34.6402C31.2757 36.0749 32.3916 37.1907 33.8263 37.1907C35.261 37.1907 36.3768 36.0749 36.3768 34.6402Z" fill="white"/>
<path d="M56.7812 21.8874C54.0712 21.8874 51.2018 21.8874 48.4919 21.8874C48.173 21.7279 48.0136 21.5685 48.0136 21.2497C48.0136 20.9309 48.173 20.7715 48.4919 20.6121H48.6513C48.6513 19.018 48.6513 17.4239 48.6513 15.9892C48.3325 15.9892 48.0136 15.6704 48.0136 15.3516C48.0136 15.0327 48.173 14.7139 48.6513 14.5545C48.6513 13.2792 48.6513 12.004 48.6513 10.7287C48.6513 10.5693 48.6513 10.5693 48.4919 10.5693C48.0136 10.5693 47.8542 9.93165 48.0136 9.61283C48.173 9.29401 48.3325 9.29401 48.6513 9.29401C49.9266 9.29401 51.2018 9.29401 52.4771 9.29401H52.6365C52.6365 9.1346 52.6365 8.81578 52.6365 8.65637C53.2741 8.65637 53.9118 8.65637 54.7088 8.65637C54.7088 8.81578 54.7088 9.1346 54.7088 9.29401H54.8682C55.5059 9.29401 56.1435 9.29401 56.7812 9.29401C57.1 9.29401 57.4188 9.61283 57.4188 9.93165C57.4188 10.2505 57.2594 10.5693 56.9406 10.5693H56.7812C56.7812 11.8446 56.7812 13.1198 56.7812 14.3951C56.7812 14.5545 56.7812 14.5545 56.9406 14.5545C57.2594 14.5545 57.4188 14.8733 57.4188 15.1922C57.4188 15.511 57.2594 15.8298 56.9406 15.8298C56.7812 15.8298 56.7812 15.8298 56.7812 15.9892C56.7812 17.4239 56.7812 18.8586 56.7812 20.4527V20.6121C56.7812 20.6121 56.7812 20.6121 56.9406 20.6121C57.4188 20.6121 57.5782 21.2497 57.4188 21.5685C57.1 21.7279 56.9406 21.8874 56.7812 21.8874ZM52.6365 13.1198C52.4771 13.2792 52.3177 13.4387 52.3177 13.7575C51.9989 14.2357 51.6801 14.8733 51.3612 15.511C51.0424 16.1486 51.5206 16.9457 52.1583 17.1051C52.6365 17.2645 53.1147 17.2645 53.593 16.7863C53.9118 16.4674 54.0712 15.9892 53.9118 15.511C53.593 14.7139 53.1147 13.9169 52.6365 13.1198Z" fill="white"/>
<path d="M18.523 46.2769C18.6824 46.4364 18.8418 46.4364 19.0012 46.7552C19.0012 47.074 18.8418 47.3928 18.523 47.3928C18.3636 47.3928 18.0447 47.3928 17.8853 47.3928V47.5522C17.8853 48.6681 17.8853 49.6245 17.8853 50.7404C17.8853 50.8998 17.8853 50.8998 17.8853 51.0592C19.32 53.291 20.7547 55.5227 22.1894 57.7544C22.3488 57.9138 22.5082 58.2327 22.5082 58.3921C22.6676 59.0297 22.3488 59.3485 21.8706 59.5079C21.7112 59.5079 21.3923 59.5079 21.2329 59.5079C17.8853 59.5079 14.5377 59.5079 11.1901 59.5079C11.0307 59.5079 10.7119 59.5079 10.5525 59.5079C9.91487 59.3485 9.59605 58.8703 9.91487 58.2326C10.0743 58.0732 10.0743 57.9138 10.2337 57.7544C11.6684 55.5227 13.1031 53.291 14.5377 51.0592C14.5377 50.8998 14.6971 50.8998 14.6971 50.7404C14.6971 49.6245 14.6971 48.6681 14.6971 47.5522V47.3928C14.5377 47.3928 14.3783 47.3928 14.2189 47.3928C13.9001 47.3928 13.5813 47.074 13.5813 46.7552C13.5813 46.5958 13.7407 46.4364 14.0595 46.2769C15.4942 46.2769 16.9289 46.2769 18.523 46.2769ZM15.6536 47.3928V47.5522C15.6536 48.6681 15.6536 49.9434 15.6536 51.0592V51.2186C14.2189 53.6098 12.6248 56.0009 11.1901 58.3921C11.1901 58.3921 11.1901 58.3921 11.1901 58.5515C14.5377 58.5515 18.0447 58.5515 21.3923 58.5515C21.3923 58.5515 21.3923 58.5515 21.3923 58.3921C19.9577 56.0009 18.3636 53.6098 16.9289 51.2186V51.0592C16.9289 49.9434 16.9289 48.6681 16.9289 47.5522V47.3928C16.4507 47.3928 15.9724 47.3928 15.6536 47.3928Z" fill="white"/>
<path d="M20.4358 58.0732C17.5664 58.0732 14.697 58.0732 11.9871 58.0732V57.9138C12.9435 56.4791 13.9 54.885 14.8564 53.4504C14.8564 53.291 15.0158 53.291 15.0158 53.291C15.8129 53.291 16.6099 53.291 17.407 53.291C17.407 53.291 17.5664 53.291 17.5664 53.4504C18.5228 54.885 19.4793 56.4791 20.4358 58.0732Z" fill="white"/>
<path d="M22.3488 21.7279C22.1894 21.8873 22.0299 22.0467 21.8705 22.0467C17.2477 22.0467 12.7842 22.0467 8.16133 22.0467C7.84252 22.0467 7.68311 21.8873 7.68311 21.5685C7.68311 20.2932 7.68311 18.8586 7.68311 17.5833C7.68311 17.4239 7.84251 17.2645 8.00192 17.1051C9.11779 16.6268 10.2337 15.9892 11.3495 15.511C11.6683 15.3516 11.9872 15.511 11.9872 15.8298C11.9872 16.1486 11.9872 16.4674 11.9872 16.9456H12.1466C12.6248 16.4674 13.2624 16.1486 13.9001 15.8298C14.0595 15.8298 14.0595 15.6704 14.0595 15.6704C14.0595 14.5545 14.0595 13.4386 14.0595 12.3228C13.9001 12.004 14.0595 11.8445 14.5377 11.8445C14.6971 11.8445 14.8565 11.8445 15.0159 11.8445C15.1753 11.8445 15.3348 12.004 15.3348 12.1634C15.3348 12.4822 15.3348 12.6416 15.3348 12.9604C15.3348 14.0763 15.3348 15.3515 15.3348 16.4674V16.6268H15.4942C16.1318 16.308 16.9288 15.9892 17.5665 15.6704C17.7259 15.6704 17.7259 15.511 17.7259 15.3515C17.7259 13.2792 17.8853 11.2069 17.8853 9.29399C17.8853 8.97518 18.0447 8.81577 18.3635 8.81577C18.8418 8.81577 19.32 8.81577 19.6388 8.81577C19.9576 8.81577 20.117 8.97518 20.117 9.29399C20.117 11.5257 20.2764 13.7575 20.2764 15.8298C20.2764 15.8298 20.2764 15.8298 20.2764 15.9892H20.4359C20.7547 15.8298 21.2329 15.6704 21.5517 15.3515C21.8705 15.1921 22.0299 15.1921 22.1894 15.511C22.3488 17.5833 22.3488 19.6556 22.3488 21.7279ZM18.0447 20.4527C18.0447 19.9744 18.0447 19.4962 18.0447 19.1774C17.7259 19.1774 17.4071 19.1774 17.0883 19.1774C17.0883 19.6556 17.0883 20.1338 17.0883 20.4527C17.4071 20.4527 17.7259 20.4527 18.0447 20.4527ZM9.11779 20.4527C9.43661 20.4527 9.75543 20.4527 10.0742 20.4527C10.0742 19.9744 10.0742 19.4962 10.0742 19.1774C9.75543 19.1774 9.43661 19.1774 9.11779 19.1774C9.11779 19.4962 9.11779 19.9744 9.11779 20.4527ZM12.7842 20.4527C12.7842 19.9744 12.7842 19.4962 12.7842 19.018C12.4654 19.018 12.1466 19.018 11.8277 19.018C11.8277 19.4962 11.8277 19.9744 11.8277 20.4527C12.1466 20.4527 12.4654 20.4527 12.7842 20.4527ZM14.5377 19.018C14.5377 19.4962 14.5377 19.9744 14.5377 20.4527C14.8565 20.4527 15.1753 20.4527 15.4942 20.4527C15.4942 19.9744 15.4942 19.4962 15.4942 19.018C15.1753 19.018 14.8565 19.018 14.5377 19.018Z" fill="white"/>
<path d="M52.7961 42.77C52.7961 42.77 52.9555 42.77 52.9555 42.9294C53.115 43.0888 53.2744 43.2482 53.2744 43.5671C53.2744 43.7265 53.2744 44.0453 53.2744 44.2047C52.7961 44.2047 52.3179 44.2047 51.8397 44.2047C51.8397 43.4077 51.6803 43.0888 52.4773 42.9294C52.4773 42.77 52.6367 42.77 52.7961 42.77Z" fill="white"/>
<path d="M51.8397 44.3641C52.3179 44.3641 52.7962 44.3641 53.4338 44.3641V44.5235C53.4338 45.3206 53.4338 46.1176 53.4338 46.9147C53.4338 47.5523 53.5932 48.1899 53.912 48.8276C54.2309 49.1464 54.3903 49.6246 54.5497 50.1028C54.7091 50.4217 54.7091 50.7405 54.7091 51.2187C54.7091 53.7693 54.7091 56.3198 54.7091 59.0298C54.7091 59.6674 54.2309 59.9862 53.7526 59.9862C52.9556 59.9862 52.1585 59.9862 51.3615 59.9862C50.7238 59.9862 50.405 59.6674 50.405 59.0298C50.405 56.4792 50.405 53.7693 50.405 51.2187C50.405 50.5811 50.5644 49.9434 50.8833 49.4652C51.2021 48.987 51.5209 48.6682 51.5209 48.1899C51.6803 47.8711 51.6803 47.5523 51.6803 47.0741C51.6803 46.277 51.6803 45.48 51.6803 44.6829C51.8397 44.5235 51.8397 44.5235 51.8397 44.3641ZM54.2309 56.4792C54.2309 54.8851 54.2309 53.291 54.2309 51.6969C53.115 51.6969 52.1585 51.6969 51.0427 51.6969C51.0427 53.291 51.0427 54.8851 51.0427 56.4792C52.1585 56.4792 53.115 56.4792 54.2309 56.4792Z" fill="white"/>
</svg>
